<svg width="400" height="46" viewBox="0 0 400 46" fill="none" xmlns="http://www.w3.org/2000/svg">
<path d="M110.912 6.73291V38.8828H103.237V18.7777L96.415 38.8828H89.7724L82.9055 18.7319V38.8828H75.2306V6.73291H84.611L93.1835 29.1279L101.576 6.73291H110.912Z" fill="white"/>
<path d="M135.867 32.9749H123.973L121.998 38.8828H113.92L125.544 6.73291H134.386L146.01 38.8828H137.842L135.867 32.9749ZM133.892 27.0212L129.943 15.1139L125.948 27.0212H133.892Z" fill="white"/>
<path d="M163.918 22.3493L176.71 38.8822H167.419L156.647 24.3644V38.8822H148.973V6.50342H156.647V20.7464L167.509 6.50342H176.71L163.918 22.3493Z" fill="white"/>
<path d="M187.616 12.7319V19.5099H198.343V25.4178H187.616V32.608H199.689V38.8822H179.941V6.50342H199.689V12.7319H187.616Z" fill="white"/>
<path d="M236.243 8.13213C238.682 9.55185 240.602 11.5211 242.013 14.04C243.419 16.5589 244.122 19.4085 244.122 22.5838C244.122 25.7591 243.409 28.6138 241.993 31.1479C240.572 33.682 238.642 35.6564 236.203 37.0761C233.765 38.4959 231.067 39.2083 228.099 39.2083C225.132 39.2083 222.434 38.4959 219.996 37.0761C217.557 35.6564 215.627 33.682 214.206 31.1479C212.785 28.6138 212.072 25.7591 212.072 22.5838C212.072 19.4085 212.78 16.564 214.206 14.04C215.627 11.5211 217.557 9.55185 219.996 8.13213C222.434 6.71241 225.137 6 228.099 6C231.062 6 233.805 6.71241 236.243 8.13213ZM222.105 15.7803C220.624 17.4443 219.881 19.7138 219.881 22.5787C219.881 25.4436 220.624 27.6775 222.105 29.3567C223.586 31.036 225.581 31.8756 228.094 31.8756C230.608 31.8756 232.568 31.036 234.064 29.3567C235.56 27.6775 236.308 25.4181 236.308 22.5787C236.308 19.7393 235.57 17.4799 234.089 15.8007C232.608 14.1214 230.608 13.2818 228.094 13.2818C225.581 13.2818 223.586 14.1163 222.105 15.7803Z" fill="white"/>
<path d="M256.102 27.5245V38.8822H248.427V6.50342H260.859C264.629 6.50342 267.502 7.46008 269.476 9.36322C271.451 11.2714 272.439 13.8463 272.439 17.0826C272.439 19.0977 271.995 20.894 271.112 22.4613C270.229 24.0337 268.918 25.2702 267.182 26.1709C265.447 27.0716 263.338 27.5245 260.854 27.5245H256.097H256.102ZM264.629 17.0826C264.629 14.2432 263.088 12.8235 260.006 12.8235H256.102V21.2502H260.006C263.088 21.2502 264.629 19.861 264.629 17.0826Z" fill="white"/>
<path d="M283.883 6.50342V38.8822H276.208V6.50342H283.883Z" fill="white"/>
<path d="M317.365 38.8822H309.691L296.854 19.0061V38.8822H289.179V6.50342H296.854L309.691 26.5627V6.50342H317.365V38.8822Z" fill="white"/>
<path d="M330.336 6.50342V38.8822H322.661V6.50342H330.336Z" fill="white"/>
<path d="M358.857 8.13213C361.295 9.55185 363.215 11.5211 364.627 14.04C366.033 16.5589 366.736 19.4085 366.736 22.5838C366.736 25.7591 366.023 28.6138 364.607 31.1479C363.185 33.682 361.255 35.6564 358.817 37.0761C356.378 38.4959 353.68 39.2083 350.713 39.2083C347.746 39.2083 345.048 38.4959 342.609 37.0761C340.171 35.6564 338.241 33.682 336.82 31.1479C335.398 28.6138 334.685 25.7591 334.685 22.5838C334.685 19.4085 335.393 16.564 336.82 14.04C338.241 11.5211 340.171 9.55185 342.609 8.13213C345.048 6.71241 347.751 6 350.713 6C353.675 6 356.418 6.71241 358.857 8.13213ZM344.719 15.7803C343.238 17.4443 342.495 19.7138 342.495 22.5787C342.495 25.4436 343.238 27.6775 344.719 29.3567C346.2 31.036 348.195 31.8756 350.708 31.8756C353.222 31.8756 355.181 31.036 356.677 29.3567C358.174 27.6775 358.922 25.4181 358.922 22.5787C358.922 19.7393 358.184 17.4799 356.702 15.8007C355.221 14.1214 353.222 13.2818 350.708 13.2818C348.195 13.2818 346.2 14.1163 344.719 15.7803Z" fill="white"/>
<path d="M399.231 38.8822H391.556L378.719 19.0061V38.8822H371.045V6.50342H378.719L391.556 26.5627V6.50342H399.231V38.8822Z" fill="white"/>
<path d="M4.52352 23.0018C4.52352 12.8146 12.8146 4.52352 23.0018 4.52352C28.4331 4.52352 33.3222 6.88133 36.7056 10.6241L36.7768 10.5714L40.4049 7.99361C36.1851 3.10759 29.9544 0 23.0018 0C10.3204 0 0 10.3204 0 23.0018C0 25.4432 0.384189 27.7949 1.0906 30.0039L5.22064 28.0117C4.77138 26.4161 4.52352 24.7368 4.52352 23.0018Z" fill="white"/>
<path d="M41.9479 17.7162L40.9378 18.59C41.2879 20.0028 41.48 21.4776 41.48 22.9988C41.48 33.1861 33.189 41.4771 23.0018 41.4771C20.7338 41.4771 18.565 41.065 16.5573 40.3152L13.3691 43.8845C16.3001 45.2415 19.5626 46.0006 23.0018 46.0006C35.6862 46.0006 46.0035 35.6802 46.0035 22.9957C46.0035 20.3126 45.5326 17.7379 44.6806 15.3398L41.9417 17.71L41.9479 17.7162Z" fill="white"/>
<path d="M43.2429 12.0772L55.4254 1.52441L42.4498 10.7388L38.7535 13.363L8.70927 34.6886C8.04004 33.8707 7.43897 32.9969 6.91846 32.0737L2.97742 34.3013C4.53276 37.0495 6.63961 39.4476 9.14613 41.3438H9.14923L9.31034 41.4677L39.7109 15.1352L43.2429 12.0772Z" fill="white"/>
</svg>
