<svg width="15" height="14" viewBox="0 0 15 14" fill="none" xmlns="http://www.w3.org/2000/svg">
<path opacity="0.2" d="M5.25439 9.99159C5.47552 10.6194 5.83316 11.1904 6.3015 11.6633C6.76985 12.1362 7.33727 12.4995 7.96286 12.7268C8.58846 12.954 9.25664 13.0398 9.91938 12.9778C10.5821 12.9157 11.2228 12.7075 11.7954 12.3681L13.3491 12.812C13.4133 12.8303 13.4814 12.8312 13.5461 12.8144C13.6108 12.7976 13.6699 12.7638 13.7171 12.7166C13.7644 12.6693 13.7982 12.6102 13.8149 12.5456C13.8317 12.4808 13.8309 12.4128 13.8125 12.3485L13.3686 10.7948C13.763 10.1296 13.9794 9.37404 13.9968 8.60089C14.0141 7.82774 13.8319 7.06319 13.4678 6.38091C13.1036 5.69869 12.5698 5.12182 11.9177 4.70601C11.2657 4.29014 10.5175 4.04937 9.74539 4.00689C9.98331 4.68532 10.0554 5.41083 9.95542 6.1228C9.8554 6.83477 9.58634 7.5124 9.17072 8.09906C8.75506 8.68567 8.20499 9.16426 7.56649 9.4947C6.92795 9.8251 6.21958 9.99779 5.50061 9.99829C5.41804 9.99829 5.33592 9.99599 5.25439 9.99159Z" fill="white"/>
<path d="M1.6311 7.79567C1.07219 6.85348 0.876452 5.73969 1.08065 4.66339C1.28484 3.58708 1.87492 2.62235 2.74009 1.95033C3.60525 1.27832 4.68598 0.945245 5.77933 1.01367C6.87267 1.08209 7.90349 1.54729 8.67809 2.32192C9.45274 3.09655 9.91793 4.12731 9.98636 5.22066C10.0548 6.31405 9.72175 7.39475 9.04972 8.25992C8.37769 9.12509 7.41295 9.7152 6.33665 9.91938C5.2604 10.1236 4.14655 9.92783 3.20436 9.36896L1.65066 9.81281C1.58638 9.83116 1.51835 9.83201 1.45364 9.81526C1.38892 9.79847 1.32986 9.76473 1.28259 9.71745C1.23532 9.67016 1.20155 9.61113 1.18478 9.5464C1.16801 9.48167 1.16885 9.41364 1.18722 9.34937L1.6311 7.79567Z" stroke="white" stroke-linecap="round" stroke-linejoin="round"/>
<path d="M5.25439 9.99154C5.47552 10.6193 5.83316 11.1903 6.3015 11.6632C6.76985 12.1362 7.33727 12.4994 7.96286 12.7267C8.58846 12.954 9.25664 13.0398 9.91938 12.9777C10.5821 12.9157 11.2228 12.7075 11.7954 12.3681L13.3491 12.8119C13.4133 12.8303 13.4814 12.8311 13.5461 12.8144C13.6108 12.7976 13.6699 12.7638 13.7171 12.7166C13.7644 12.6693 13.7982 12.6102 13.8149 12.5455C13.8317 12.4808 13.8309 12.4128 13.8125 12.3485L13.3686 10.7948C13.763 10.1296 13.9794 9.37399 13.9968 8.60084C14.0141 7.8277 13.8319 7.06314 13.4678 6.38092C13.1036 5.69864 12.5698 5.12177 11.9177 4.70596C11.2657 4.29009 10.5175 4.04932 9.74539 4.00684" stroke="white" stroke-linecap="round" stroke-linejoin="round"/>
</svg>
