<svg width="19" height="18" viewBox="0 0 19 18" fill="none" xmlns="http://www.w3.org/2000/svg">
<path d="M1.2262 14.9424C1.2262 14.9424 4.72113 14.2434 5.42011 12.1464C5.42011 12.1464 -0.171775 10.0495 1.2262 2.36061C1.2262 2.36061 4.02214 5.85554 8.21606 6.55452V5.1568C8.21613 4.35381 8.49268 3.57532 8.9992 2.95223C9.5057 2.32914 10.2113 1.89943 10.9973 1.73537C11.7835 1.5713 12.602 1.68287 13.3155 2.05132C14.029 2.41977 14.5939 3.02263 14.9151 3.75855L18.0018 3.75858L15.2059 6.55452C15.2059 11.4474 11.711 16.3403 5.42011 16.3403C2.62417 16.3403 1.2262 14.9424 1.2262 14.9424Z" stroke="white" stroke-opacity="0.8" stroke-width="1.5" stroke-linecap="round" stroke-linejoin="round"/>
</svg>
