<svg width="18" height="18" viewBox="0 0 18 18" fill="none" xmlns="http://www.w3.org/2000/svg">
<path d="M9.00247 12.3338C10.8435 12.3338 12.3359 10.8414 12.3359 9.00041C12.3359 7.15941 10.8435 5.66699 9.00247 5.66699C7.16149 5.66699 5.66907 7.15941 5.66907 9.00041C5.66907 10.8414 7.16149 12.3338 9.00247 12.3338Z" stroke="white" stroke-width="1.75" stroke-linecap="round" stroke-linejoin="round"/>
<path d="M13.4252 15.6672C11.9399 16.653 10.168 17.1144 8.3906 16.9785C6.61319 16.8425 4.93211 16.1168 3.61408 14.9166C2.29605 13.7165 1.41658 12.1105 1.11519 10.3536C0.813811 8.5967 1.10779 6.7894 1.95049 5.21858C2.79318 3.64775 4.13633 2.40334 5.76679 1.68278C7.39726 0.962224 9.22171 0.806803 10.9505 1.24118C12.6794 1.67555 14.2137 2.67485 15.3099 4.08049C16.4062 5.48614 17.0016 7.21763 17.0018 9.00021C17.0018 10.8413 16.3351 12.3336 14.6684 12.3336C13.0017 12.3336 12.335 10.8413 12.335 9.00021V5.6668" stroke="white" stroke-width="1.75" stroke-linecap="round" stroke-linejoin="round"/>
</svg>
