<svg width="16" height="16" viewBox="0 0 16 16" fill="none" xmlns="http://www.w3.org/2000/svg">
<path d="M13.8842 1.25098H1.61144C1.27254 1.25098 0.997803 1.52571 0.997803 1.86461V14.1373C0.997803 14.4762 1.27254 14.751 1.61144 14.751H13.8842C14.2231 14.751 14.4978 14.4762 14.4978 14.1373V1.86461C14.4978 1.52571 14.2231 1.25098 13.8842 1.25098Z" stroke="white" stroke-opacity="0.8" stroke-width="1.5" stroke-linecap="round" stroke-linejoin="round"/>
<path d="M7.13416 6.77393V11.683" stroke="white" stroke-opacity="0.8" stroke-width="1.5" stroke-linecap="round" stroke-linejoin="round"/>
<path d="M4.67957 6.77393V11.683" stroke="white" stroke-opacity="0.8" stroke-width="1.5" stroke-linecap="round" stroke-linejoin="round"/>
<path d="M7.13416 8.92165C7.13416 8.35204 7.36043 7.80576 7.76321 7.40298C8.16599 7.0002 8.71226 6.77393 9.28188 6.77393C9.8515 6.77393 10.3978 7.0002 10.8006 7.40298C11.2033 7.80576 11.4296 8.35204 11.4296 8.92165V11.683" stroke="white" stroke-opacity="0.8" stroke-width="1.5" stroke-linecap="round" stroke-linejoin="round"/>
<path d="M4.67961 5.23983C5.18796 5.23983 5.60006 4.82773 5.60006 4.31938C5.60006 3.81103 5.18796 3.39893 4.67961 3.39893C4.17126 3.39893 3.75916 3.81103 3.75916 4.31938C3.75916 4.82773 4.17126 5.23983 4.67961 5.23983Z" fill="white" fill-opacity="0.8"/>
</svg>
